<?xml version="1.0" standalone="no"?>
<!DOCTYPE svg PUBLIC "-//W3C//DTD SVG 1.1//EN" "http://www.w3.org/Graphics/SVG/1.1/DTD/svg11.dtd" >
<svg>
<metadata>
Created by FontForge 20090622 at Mon Jan 14 16:49:06 2013
 By ffonts
Copyright (c) 2010 by Marco M&#194;&#159;ller. All rights reserved.
</metadata>
<defs>
<font id="Melbourne-Bold" horiz-adv-x="441" >
  <font-face 
    font-family="Melbourne"
    font-weight="700"
    font-stretch="normal"
    units-per-em="1000"
    panose-1="2 0 0 0 0 0 0 0 0 0"
    ascent="750"
    descent="-250"
    x-height="500"
    cap-height="700"
    bbox="-179 -212 837 868.088"
    underline-thickness="50"
    underline-position="-50"
    unicode-range="U+0020-U+2212"
  />
<missing-glyph horiz-adv-x="210" 
 />
    <glyph glyph-name=".notdef" horiz-adv-x="210" 
 />
    <glyph glyph-name="f" unicode="f" horiz-adv-x="321" 
d="M124 540c0 99 52 160 160 160h20c17 0 29 -13 29 -28v-29c0 -15 -12 -27 -29 -27h-20c-64 0 -69 -38 -69 -76v-49h83c17 0 29 -13 29 -28v-29c0 -15 -12 -27 -29 -27h-83v-378c0 -17 -13 -29 -28 -29h-36c-15 0 -27 12 -27 29v378h-20c-17 0 -29 12 -29 27v29
c0 15 12 28 29 28h20v49z" />
    <glyph glyph-name="g" unicode="g" horiz-adv-x="502" 
d="M425 478v-503c0 -132 -69 -187 -163 -187c-99 0 -171 46 -171 160c0 17 14 29 29 29h29c14 0 26 -12 26 -29c0 -71 50 -78 87 -78c56 0 74 36 74 105v63c-27 -33 -55 -45 -95 -45c-94 0 -151 58 -151 169v169c0 97 43 176 153 176c26 0 65 -11 91 -37v8c0 29 28 29 28 29
h37c15 0 26 -12 26 -29zM254 423c-49 0 -73 -27 -73 -85v-183c0 -61 30 -78 69 -78c49 0 84 22 84 78v183c0 66 -44 85 -80 85z" />
    <glyph glyph-name="h" unicode="h" horiz-adv-x="480" 
d="M112 700h37c15 0 27 -12 27 -29v-206c4 11 31 42 93 42c94 0 149 -59 149 -175v-303c0 -17 -12 -29 -27 -29h-37c-15 0 -27 12 -27 29v310c0 49 -17 84 -71 84c-59 0 -80 -44 -80 -84v-310c0 -17 -12 -29 -27 -29h-37c-15 0 -27 12 -27 29v642c0 17 12 29 27 29z" />
    <glyph glyph-name="i" unicode="i" horiz-adv-x="241" 
d="M116 500h37c15 0 27 -12 27 -29v-442c0 -17 -13 -29 -28 -29h-36c-15 0 -27 12 -27 29v442c0 17 12 29 27 29zM158 700c15 0 27 -12 27 -29v-52c0 -17 -12 -29 -27 -29h-46c-15 0 -27 12 -27 29v52c0 17 12 29 27 29h46z" />
    <glyph glyph-name="j" unicode="j" horiz-adv-x="267" 
d="M142 700h46c15 0 27 -12 27 -29v-52c0 -17 -12 -29 -27 -29h-46c-15 0 -27 12 -27 29v52c0 17 12 29 27 29zM146 500h36c15 0 27 -12 27 -29v-523c0 -99 -52 -160 -160 -160h-20c-17 0 -29 13 -29 28v29c0 15 12 27 29 27h20c64 0 69 38 69 76v523c0 17 13 29 28 29z" />
    <glyph glyph-name="k" unicode="k" 
d="M275 306l159 -268c23 -40 -9 -38 -9 -38h-47s-16 -3 -29 21l-132 226l-46 -54v-164c0 -17 -13 -29 -28 -29h-36c-15 0 -27 12 -27 29v642c0 17 12 29 27 29h36c15 0 28 -12 28 -29v-359l140 168c16 19 31 20 31 20h54s39 -2 9 -38z" />
    <glyph glyph-name="l" unicode="l" horiz-adv-x="280" 
d="M109 700h36c15 0 28 -12 28 -29v-518c0 -38 5 -76 69 -76h20c17 0 29 -12 29 -27v-29c0 -15 -12 -28 -29 -28h-20c-108 0 -160 61 -160 160v518c0 17 12 29 27 29z" />
    <glyph glyph-name="m" unicode="m" horiz-adv-x="686" 
d="M107 500h37c15 0 27 -12 27 -29v-7c24 40 72 43 92 43c28 0 63 -11 88 -48c26 40 76 48 108 48c79 0 149 -35 149 -175v-303c0 -29 -28 -29 -28 -29h-34s-29 0 -29 29v303c0 49 -8 91 -58 91c-28 0 -62 -29 -62 -62v-332c0 -29 -28 -29 -28 -29h-35s-28 0 -28 29v332
c0 27 -14 62 -57 62c-58 0 -78 -51 -78 -91v-303c0 -29 -29 -29 -29 -29h-34s-28 0 -28 29v442c0 17 12 29 27 29z" />
    <glyph glyph-name="n" unicode="n" horiz-adv-x="476" 
d="M107 500h37c15 0 27 -12 27 -29v-6c9 14 44 42 93 42c94 0 149 -59 149 -175v-303c0 -17 -12 -29 -27 -29h-37c-15 0 -27 12 -27 29v310c0 49 -17 84 -71 84c-59 0 -80 -44 -80 -84v-310c0 -17 -12 -29 -27 -29h-37c-15 0 -27 12 -27 29v442c0 17 12 29 27 29z" />
    <glyph glyph-name="o" unicode="o" horiz-adv-x="442" 
d="M228 423c-62 0 -77 -46 -77 -101v-150c0 -48 14 -95 76 -95c64 0 78 47 78 95v150c0 55 -15 101 -77 101zM229 -7h-2c-100 0 -167 65 -167 179v150c0 132 68 185 168 185s168 -53 168 -185v-150c0 -114 -67 -179 -167 -179z" />
    <glyph glyph-name="p" unicode="p" horiz-adv-x="479" 
d="M107 500h37c15 0 27 -12 27 -29v-6c14 21 50 42 92 42c94 0 153 -59 153 -175v-169c0 -96 -62 -170 -149 -170c-37 0 -81 16 -98 45v-221c0 -17 -12 -29 -27 -29h-35c-15 0 -27 12 -27 29v654c0 17 12 29 27 29zM250 423c-59 0 -80 -44 -80 -84v-181c0 -47 33 -81 84 -81
c42 0 71 25 71 81v181c0 49 -21 84 -75 84z" />
    <glyph glyph-name="q" unicode="q" horiz-adv-x="461" 
d="M151 338v-176c0 -61 34 -85 65 -85c58 0 88 50 88 96v165c0 66 -44 85 -80 85c-49 0 -73 -27 -73 -85zM60 162v169c0 97 43 176 153 176c26 0 70 -12 91 -42v13c0 29 28 29 28 29h37c15 0 26 -12 26 -29v-661c0 -17 -12 -29 -27 -29h-35c-15 0 -27 12 -27 29v221
c-18 -27 -59 -45 -98 -45c-70 0 -148 58 -148 169z" />
    <glyph glyph-name="r" unicode="r" horiz-adv-x="286" 
d="M277 507c17 0 29 -12 29 -27v-29c0 -15 -12 -28 -29 -28c-90 0 -106 -44 -106 -84v-310c0 -17 -12 -29 -27 -29h-37c-15 0 -27 12 -27 29v442c0 17 12 29 27 29h37c15 0 27 -12 27 -29v-6c31 31 47 42 106 42z" />
    <glyph glyph-name="s" unicode="s" horiz-adv-x="410" 
d="M138 152c0 -37 14 -75 72 -75c39 0 60 29 60 58c0 25 -8 44 -44 65l-82 48c-59 35 -76 87 -76 123c0 66 49 136 141 136c64 0 136 -22 148 -112c4 -30 -23 -34 -23 -34l-29 -4c-13 -1 -30 7 -33 27c-6 36 -38 42 -60 42c-26 0 -57 -22 -57 -55c0 -21 10 -37 38 -53
l71 -40c52 -29 94 -71 94 -143c0 -70 -57 -142 -149 -142c-129 0 -159 101 -159 160c0 30 28 30 28 30h29c19 0 31 -9 31 -31z" />
    <glyph glyph-name="t" unicode="t" horiz-adv-x="327" 
d="M271 0h-16c-104 0 -160 42 -160 160v247h-22c-28 0 -28 28 -28 28v27s0 29 28 29h22v161c0 28 28 28 28 28h34s29 0 29 -28v-161h77c29 0 29 -28 29 -28v-27s0 -29 -29 -29h-77v-247c0 -58 28 -76 69 -76h16c28 0 28 -27 28 -27v-28s0 -29 -28 -29z" />
    <glyph glyph-name="u" unicode="u" horiz-adv-x="471" 
d="M417 471v-442c0 -17 -12 -29 -27 -29h-35c-15 0 -27 12 -27 29v9c-21 -30 -61 -45 -94 -45c-94 0 -159 67 -159 176v302c0 17 12 29 27 29h37c15 0 27 -12 27 -29v-309c0 -61 38 -85 77 -85c49 0 83 29 83 85v309c0 17 12 29 27 29h37c15 0 27 -12 27 -29z" />
    <glyph glyph-name="v" unicode="v" horiz-adv-x="415" 
d="M165 29l-129 442c-5 19 8 29 25 29h44c15 0 27 -11 32 -29l88 -359l86 359c5 18 17 29 32 29h44c17 0 30 -10 25 -29l-128 -440c-5 -19 -13 -31 -28 -31h-61c-15 0 -25 10 -30 29z" />
    <glyph glyph-name="w" unicode="w" horiz-adv-x="646" 
d="M322 500h51c15 0 27 -11 32 -29l83 -358l63 358c5 18 17 29 32 29h44c17 0 30 -10 25 -29l-100 -442c-5 -19 -15 -29 -30 -29h-68c-15 0 -24 12 -28 31l-79 327l-78 -327c-4 -19 -13 -31 -28 -31h-67c-15 0 -25 10 -30 29l-101 442c-5 19 8 29 25 29h44
c15 0 27 -11 32 -29l63 -358l83 358c5 18 17 29 32 29z" />
    <glyph glyph-name="x" unicode="x" horiz-adv-x="393" 
d="M377 466l-118 -208l123 -229c10 -19 -2 -29 -25 -29h-23c-15 0 -32 5 -44 29l-83 158l-88 -158c-12 -24 -29 -29 -44 -29h-23c-23 0 -35 10 -25 29l135 239l-114 203c-10 19 2 29 25 29h27c15 0 25 -4 38 -29l72 -136l77 131c15 25 23 29 38 29h27c23 0 35 -10 25 -29z
" />
    <glyph glyph-name="z" unicode="z" horiz-adv-x="454" 
d="M93 500h285c17 0 29 -13 29 -28v-25c0 -15 -11 -26 -14 -31l-221 -332h217c17 0 29 -12 29 -27v-29c0 -15 -12 -28 -29 -28h-306c-17 0 -29 13 -29 28v25c0 15 11 26 14 31l220 332h-195c-17 0 -29 12 -29 27v29c0 15 12 28 29 28z" />
    <glyph glyph-name="y" unicode="y" horiz-adv-x="418" 
d="M87 -212c-29 0 -29 30 -29 30v35s0 30 29 30c31 0 63 7 71 38l20 79h-5c-8 0 -15 7 -18 15l-132 456c-5 19 8 29 25 29h44c15 0 27 -11 32 -29l92 -342h2l93 342c5 18 17 29 32 29h44c17 0 30 -10 25 -29l-165 -565c-27 -98 -80 -118 -160 -118z" />
    <glyph glyph-name="e" unicode="e" horiz-adv-x="472" 
d="M250 507c91 0 161 -55 161 -144v-77c0 -25 -13 -49 -48 -55l-197 -37v-39c1 -42 30 -78 77 -78c58 0 77 38 77 76c0 30 29 30 29 30h31c19 0 31 -9 31 -31c0 -88 -64 -159 -168 -159c-99 0 -168 69 -168 162v177c0 100 62 175 175 175zM245 423c-58 0 -79 -38 -79 -83
v-60l154 30v53c0 40 -31 60 -75 60z" />
    <glyph glyph-name="A" unicode="A" horiz-adv-x="626" 
d="M327 605h-2l-79 -293h159zM284 700h83s23 0 30 -24l180 -644c9 -32 -25 -32 -25 -32h-46c-11 0 -23 8 -28 24l-47 193h-210l-50 -193c-5 -16 -17 -24 -27 -24h-47s-33 0 -24 32l182 644c7 24 29 24 29 24z" />
    <glyph glyph-name="B" unicode="B" horiz-adv-x="530" 
d="M187 604v-190h64c76 0 121 34 121 95c0 63 -33 95 -105 95h-80zM90 700h177c141 0 203 -81 203 -191c0 -65 -30 -110 -62 -134c59 -32 80 -92 80 -163c0 -107 -61 -212 -211 -212h-187v700zM187 322v-228h90c68 0 114 41 114 116c0 92 -54 112 -122 112h-82z" />
    <glyph glyph-name="C" unicode="C" horiz-adv-x="542" 
d="M289 707c130 0 187 -77 201 -170c2 -12 -1 -28 -20 -34l-35 -9c-19 -5 -38 5 -41 22c-6 59 -41 96 -105 96c-77 0 -112 -40 -112 -133v-259c0 -93 35 -132 112 -132c68 0 108 40 108 132c0 29 28 29 28 29h40s29 0 29 -29c0 -127 -56 -227 -205 -227
c-138 0 -209 95 -209 227v259c0 132 71 228 209 228z" />
    <glyph glyph-name="D" unicode="D" horiz-adv-x="559" 
d="M90 700h200c149 0 206 -100 206 -226v-248c0 -126 -57 -226 -206 -226h-200v700zM187 606v-512h103c68 0 109 41 109 132v248c0 91 -41 132 -109 132h-103z" />
    <glyph glyph-name="E" unicode="E" horiz-adv-x="523" 
d="M90 700h353c29 0 29 -28 29 -28v-39s0 -28 -28 -28h-257v-205h190c29 0 29 -28 29 -28v-39s0 -28 -28 -28h-191v-210h256c29 0 29 -28 29 -28v-39s0 -28 -28 -28h-354v700z" />
    <glyph glyph-name="F" unicode="F" horiz-adv-x="503" 
d="M90 700h334c29 0 29 -28 29 -28v-41s-3 -26 -29 -26h-237v-205h171c29 0 29 -28 29 -28v-41s-3 -26 -29 -26h-171v-278c-3 -27 -29 -27 -29 -27h-39s-29 0 -29 29v671z" />
    <glyph glyph-name="G" unicode="G" horiz-adv-x="537" 
d="M272 707c130 0 187 -76 201 -168c2 -12 -1 -29 -20 -34l-38 -10c-19 -5 -34 6 -37 22c-9 58 -42 95 -106 95c-75 0 -105 -39 -105 -132v-259c0 -93 35 -133 112 -133c68 0 108 41 108 133v38h-103c-29 0 -29 29 -29 29v37s0 29 29 29h171s29 0 29 -29v-104
c0 -127 -56 -228 -205 -228c-138 0 -209 96 -209 228v259c0 132 64 227 202 227z" />
    <glyph glyph-name="H" unicode="H" horiz-adv-x="577" 
d="M118 700h39s30 0 30 -29v-261h221v261c0 29 28 29 28 29h39s30 0 30 -29v-642c0 -29 -29 -29 -29 -29h-39s-29 0 -29 29v286h-221v-286c0 -29 -29 -29 -29 -29h-39s-29 0 -29 29v642c0 29 28 29 28 29z" />
    <glyph glyph-name="I" unicode="I" horiz-adv-x="241" 
d="M118 700h39s30 0 30 -29v-642c0 -29 -29 -29 -29 -29h-39s-29 0 -29 29v642c0 29 28 29 28 29z" />
    <glyph glyph-name="J" unicode="J" horiz-adv-x="370" 
d="M248 700h40s29 0 29 -29v-450c0 -129 -83 -228 -232 -228c-30 0 -30 29 -30 29v36s0 30 30 30c79 0 135 33 135 133v450c0 29 28 29 28 29z" />
    <glyph glyph-name="K" unicode="K" horiz-adv-x="565" 
d="M118 700h40s29 0 29 -29v-258l189 267c10 20 31 20 31 20h45s46 0 22 -41l-181 -260l140 -250c20 -34 34 -54 58 -54h5c30 0 30 -30 30 -30v-35s0 -30 -30 -30h-20c-61 0 -94 32 -137 107l-116 200l-36 -51v-227c0 -29 -28 -29 -28 -29h-41s-28 0 -28 29v642
c0 29 28 29 28 29z" />
    <glyph glyph-name="L" unicode="L" horiz-adv-x="448" 
d="M118 700h40s29 0 29 -29v-576h199c30 0 30 -28 30 -28v-38s0 -29 -30 -29h-296v671c0 29 28 29 28 29z" />
    <glyph glyph-name="M" unicode="M" horiz-adv-x="626" 
d="M119 700h59s20 0 31 -22l112 -262l111 262c10 22 31 22 31 22h57s30 0 30 -29v-642s0 -29 -30 -29h-37s-30 0 -30 29l10 494l-89 -224c-8 -19 -17 -21 -28 -21h-45c-12 0 -22 2 -30 21l-94 229l10 -499s0 -29 -29 -29h-39s-29 0 -29 29v642s0 29 29 29z" />
    <glyph glyph-name="N" unicode="N" horiz-adv-x="586" 
d="M119 700h60s20 0 31 -22l211 -504l-6 497s0 29 29 29h39s29 0 29 -29v-642s0 -29 -29 -29h-60s-22 0 -31 21l-210 505l5 -497s0 -29 -29 -29h-39s-29 0 -29 29v642s0 29 29 29z" />
    <glyph glyph-name="O" unicode="O" horiz-adv-x="558" 
d="M288 707c149 0 207 -101 207 -228v-259c0 -127 -58 -227 -207 -227s-208 100 -208 227v259c0 127 59 228 208 228zM288 612c-68 0 -111 -41 -111 -133v-259c0 -92 43 -132 111 -132s110 40 110 132v259c0 92 -42 133 -110 133z" />
    <glyph glyph-name="P" unicode="P" horiz-adv-x="528" 
d="M90 700h168c149 0 209 -91 209 -217v-25c0 -126 -60 -216 -209 -216h-71v-213c0 -29 -28 -29 -28 -29h-40s-29 0 -29 29v671zM187 607v-271h71c68 0 112 32 112 122v25c0 91 -44 124 -112 124h-71z" />
    <glyph glyph-name="Q" unicode="Q" horiz-adv-x="580" 
d="M288 707c149 0 208 -101 208 -228v-259c0 -48 -12 -104 -35 -128h36c27 0 29 -27 29 -27v-35s0 -30 -29 -30h-21c-42 0 -82 0 -93 12c-21 -10 -50 -19 -95 -19c-149 0 -208 100 -208 227v259c0 127 59 228 208 228zM288 612c-68 0 -110 -41 -110 -133v-259
c0 -92 42 -132 110 -132c9 0 17 0 25 2l-47 75c-24 40 26 40 26 40h36s21 0 30 -16l27 -43c8 19 13 44 13 74v259c0 92 -42 133 -110 133z" />
    <glyph glyph-name="R" unicode="R" horiz-adv-x="562" 
d="M91 700h176c149 0 209 -80 209 -208c0 -111 -42 -166 -121 -198l72 -152c18 -31 34 -47 52 -47h15c29 0 29 -30 29 -30v-35s0 -30 -29 -30h-21c-60 0 -93 31 -137 108l-78 170h-70v-249c0 -29 -28 -29 -28 -29h-40s-29 0 -29 29v671zM188 606v-233h79
c80 0 112 40 112 121c0 91 -44 112 -112 112h-79z" />
    <glyph glyph-name="S" unicode="S" horiz-adv-x="506" 
d="M259 707c121 0 186 -70 200 -164c2 -12 -1 -28 -20 -34l-35 -9c-19 -5 -36 1 -41 22c-15 63 -45 87 -104 87c-76 0 -101 -46 -101 -84c0 -33 10 -63 42 -80l172 -90c61 -32 96 -97 96 -163c0 -113 -76 -199 -209 -199c-82 0 -205 47 -205 205c0 29 29 29 29 29h40
s28 0 28 -29c0 -90 59 -110 108 -110c81 0 112 57 112 104c0 32 -14 64 -63 89l-144 74c-92 47 -103 121 -103 173c0 115 91 179 198 179z" />
    <glyph glyph-name="T" unicode="T" horiz-adv-x="501" 
d="M79 700h360c29 0 29 -28 29 -28v-38s0 -29 -29 -29h-132v-576c0 -29 -28 -29 -28 -29h-40s-29 0 -29 29v576h-131c-29 0 -29 28 -29 28v38s0 29 29 29z" />
    <glyph glyph-name="U" unicode="U" horiz-adv-x="544" 
d="M103 700h40s29 0 29 -29v-423c0 -123 35 -160 111 -160c68 0 109 37 109 160v423c0 29 28 29 28 29h40s29 0 29 -29v-418c0 -139 -57 -260 -206 -260c-145 0 -208 118 -208 260v418c0 29 28 29 28 29z" />
    <glyph glyph-name="V" unicode="V" horiz-adv-x="555" 
d="M81 700h45c11 0 23 -8 28 -24l133 -551h7l131 551c5 16 17 24 28 24h45s33 0 25 -32l-161 -644c-6 -24 -30 -24 -30 -24h-84s-25 0 -31 25l-161 643c-8 32 25 32 25 32z" />
    <glyph glyph-name="W" unicode="W" horiz-adv-x="773" 
d="M85 700h45c11 0 24 -8 28 -24l98 -551l92 497c6 29 20 29 31 29h42c9 0 26 0 32 -29l91 -497l99 552c4 16 17 24 28 24h45s32 0 25 -32l-123 -644c-5 -25 -31 -25 -31 -25h-84s-26 0 -33 28l-70 433l-71 -436c-5 -25 -31 -25 -31 -25h-85s-24 0 -30 25l-123 643
c-7 32 25 32 25 32z" />
    <glyph glyph-name="X" unicode="X" horiz-adv-x="591" 
d="M128 700h44c11 0 20 0 30 -17l115 -212l114 212c9 17 19 17 30 17h44c21 0 43 0 25 -32l-159 -293l190 -343c18 -32 -4 -32 -25 -32h-44c-11 0 -21 0 -30 17l-148 266l-145 -266c-10 -17 -19 -17 -30 -17h-44c-21 0 -43 0 -25 32l191 349l-158 287c-18 32 4 32 25 32z
" />
    <glyph glyph-name="Y" unicode="Y" horiz-adv-x="559" 
d="M84 700h55c11 0 23 -8 28 -24l138 -346h10l123 346c5 16 17 24 28 24h48c12 0 36 0 25 -32l-234 -644c-9 -24 -17 -24 -28 -24h-46c-12 0 -36 0 -25 32l65 178h-9c-8 0 -15 7 -18 15l-178 443c-12 27 -1 32 18 32z" />
    <glyph glyph-name="Z" unicode="Z" horiz-adv-x="557" 
d="M104 700h359s26 -3 26 -29v-44c0 -7 0 -10 -5 -21l-293 -511h279c29 0 29 -28 29 -28v-41s-3 -26 -29 -26h-366c-26 0 -29 26 -29 26v41c0 8 0 11 5 21l294 517h-270c-29 0 -29 28 -29 28v41s3 26 29 26z" />
    <glyph glyph-name="a" unicode="a" horiz-adv-x="451" 
d="M193 197c-40 -9 -47 -38 -47 -56c0 -32 26 -64 64 -64c52 0 88 49 88 95v50zM226 507c86 0 163 -57 163 -177v-301c0 -17 -12 -29 -27 -29h-35c-15 0 -27 12 -27 29v9c-18 -27 -61 -45 -100 -45c-79 0 -145 63 -145 144c0 78 30 121 124 144l119 29v42
c0 42 -31 71 -72 71c-46 0 -67 -23 -67 -52c0 -18 -12 -29 -27 -29h-37c-15 0 -27 11 -27 29c0 83 67 136 158 136z" />
    <glyph glyph-name="period" unicode="." horiz-adv-x="189" 
d="M81 104h50c15 0 27 -12 27 -29v-46c0 -17 -12 -29 -27 -29h-50c-15 0 -27 12 -27 29v46c0 17 12 29 27 29z" />
    <glyph glyph-name="b" unicode="b" horiz-adv-x="479" 
d="M107 700h37c15 0 27 -12 27 -29v-201c14 21 50 37 92 37c94 0 153 -59 153 -175v-169c0 -96 -62 -170 -157 -170c-37 0 -73 16 -90 45v-9c0 -17 -12 -29 -27 -29h-35c-15 0 -27 12 -27 29v642c0 17 12 29 27 29zM250 423c-59 0 -80 -44 -80 -84v-181c0 -47 33 -81 84 -81
c42 0 71 25 71 81v181c0 49 -21 84 -75 84z" />
    <glyph glyph-name="c" unicode="c" 
d="M229 507c66 0 141 -27 158 -119c2 -13 3 -25 -21 -32l-34 -8c-12 -3 -29 -4 -34 22c-6 30 -23 53 -69 53c-53 0 -78 -31 -78 -103v-148c0 -66 28 -95 78 -95c52 0 76 39 76 73c0 30 29 30 29 30h31c19 0 31 -9 31 -31c0 -119 -98 -156 -167 -156c-110 0 -169 61 -169 179
v148c0 137 88 187 169 187z" />
    <glyph glyph-name="d" unicode="d" horiz-adv-x="463" 
d="M213 507c26 0 71 -12 91 -37v201c0 29 28 29 28 29h37c15 0 26 -12 26 -29v-642c0 -17 -12 -29 -27 -29h-35c-15 0 -27 12 -27 29v9c-27 -33 -55 -45 -95 -45c-94 0 -151 58 -151 169v169c0 97 43 176 153 176zM224 423c-49 0 -73 -27 -73 -85v-183c0 -61 30 -78 69 -78
c49 0 84 22 84 78v183c0 66 -44 85 -80 85z" />
    <glyph glyph-name="one" unicode="1" 
d="M432 0h-358c-29 0 -29 28 -29 28v39s0 28 28 28h132v510h-73c-29 0 -29 28 -29 28v39s0 28 28 28h142c29 0 29 -29 29 -29v-576h131c28 0 28 -28 28 -28v-39s0 -28 -29 -28z" />
    <glyph glyph-name="two" unicode="2" horiz-adv-x="461" 
d="M248 707c134 0 184 -97 184 -192c0 -61 -13 -127 -76 -206l-172 -214h216c29 0 29 -28 29 -28v-41s-3 -26 -29 -26h-316c-26 0 -29 26 -29 26v41c0 8 0 11 5 21l205 259c62 79 70 107 70 168c0 73 -37 106 -84 106c-52 0 -80 -38 -80 -99c0 -29 -31 -29 -31 -29h-39
s-28 0 -28 29c0 117 71 185 175 185z" />
    <glyph glyph-name="zero" unicode="0" horiz-adv-x="494" 
d="M252 707c123 0 183 -87 183 -209v-295c0 -122 -71 -210 -183 -210s-182 88 -182 210v295c0 122 59 209 182 209zM252 85c57 0 86 35 86 134v261c0 99 -29 132 -86 132s-85 -33 -85 -132v-261c0 -99 28 -134 85 -134z" />
    <glyph glyph-name="three" unicode="3" horiz-adv-x="482" 
d="M70 522c0 117 72 185 175 185c118 0 178 -77 178 -194c0 -47 -7 -122 -51 -157c53 -43 59 -109 59 -157c0 -128 -69 -205 -187 -205c-148 0 -184 121 -184 195c0 29 27 29 27 29h40s30 0 30 -29c0 -66 33 -101 87 -101c50 0 90 21 90 111c0 86 -40 114 -75 114h-21
c-30 0 -30 30 -30 30v36s0 28 30 28h22c34 0 66 21 66 106c0 79 -37 99 -81 99c-53 0 -78 -29 -78 -90c0 -29 -30 -29 -30 -29h-39s-28 0 -28 29z" />
    <glyph glyph-name="seven" unicode="7" horiz-adv-x="423" 
d="M68 37l180 421l36 85c11 27 16 47 17 62h-244c-29 0 -29 28 -29 28v39s0 28 28 28h314c28 0 28 -28 28 -28v-47c0 -21 -4 -62 -30 -120l-205 -485c-10 -20 -22 -20 -29 -20h-42c-14 0 -42 0 -24 37z" />
    <glyph glyph-name="five" unicode="5" horiz-adv-x="467" 
d="M147 604v-158c29 15 66 18 91 18c123 0 184 -93 184 -199v-59c0 -124 -69 -213 -184 -213c-116 0 -188 75 -188 205c0 29 28 29 28 29h41s28 0 28 -29c0 -88 33 -110 91 -110c49 0 87 29 87 118v57c0 75 -31 109 -87 109c-46 0 -91 -13 -91 -48c0 -29 -28 -29 -28 -29
h-41s-28 0 -28 29v346c0 29 28 29 28 29h280c28 0 28 -28 28 -28v-38s0 -29 -28 -29h-211z" />
    <glyph glyph-name="six" unicode="6" horiz-adv-x="497" 
d="M167 495v-82c30 28 68 33 93 33c123 0 182 -93 182 -199v-40c0 -124 -65 -213 -191 -213c-114 0 -181 90 -181 213v288c0 140 79 212 187 212c115 0 183 -84 183 -188c0 -31 -28 -31 -28 -31h-39s-28 0 -28 31c0 67 -35 93 -88 93c-50 0 -90 -21 -90 -117zM167 242v-32
c0 -90 37 -121 84 -121c59 0 94 31 94 121v32c0 75 -29 109 -84 109c-25 0 -94 -4 -94 -109z" />
    <glyph glyph-name="eight" unicode="8" horiz-adv-x="480" 
d="M246 416c35 0 77 17 77 102c0 79 -35 95 -77 95c-55 0 -80 -30 -80 -95c0 -85 43 -102 80 -102zM246 88c49 0 87 31 87 110c0 87 -38 124 -87 124c-51 0 -89 -37 -89 -124c0 -79 38 -110 89 -110zM421 518c0 -49 -14 -109 -57 -148c65 -44 66 -121 66 -172
c0 -75 -41 -205 -184 -205c-145 0 -186 130 -186 205c0 47 12 126 65 171c-42 38 -57 100 -57 149c0 74 29 189 178 189c147 0 175 -115 175 -189z" />
    <glyph glyph-name="nine" unicode="9" horiz-adv-x="480" 
d="M257 707c115 0 183 -92 183 -217v-279c0 -133 -73 -218 -190 -218c-118 0 -188 86 -188 194c0 30 29 30 29 30h40s28 0 28 -30c0 -70 40 -100 91 -100c58 0 92 43 92 124v69c-25 -18 -59 -27 -90 -27c-127 0 -192 95 -192 204v33c0 126 78 217 197 217zM252 347
c55 0 90 32 90 102v41c0 90 -38 123 -85 123c-52 0 -100 -33 -100 -123v-31c0 -76 36 -112 95 -112z" />
    <glyph glyph-name="four" unicode="4" horiz-adv-x="485" 
d="M138 252h145v313zM380 252h37c30 0 30 -28 30 -28v-37s0 -30 -31 -30h-36v-127c0 -30 -29 -30 -29 -30h-38s-30 0 -30 30v127h-217c-31 0 -31 30 -31 30v30c0 12 0 30 6 40l203 423c12 18 27 20 27 20h79s30 0 30 -30v-418z" />
    <glyph glyph-name="_0009" horiz-adv-x="193" 
d="M59 104h70c9 0 17 -7 17 -19v-66c0 -11 -8 -19 -17 -19h-70c-9 0 -17 5 -17 19v66c0 12 7 19 17 19zM62 701h61s18 0 18 -19v-504c0 -19 -16 -19 -16 -19h-64s-17 0 -17 19v504c0 19 18 19 18 19z" />
    <glyph glyph-name="quotedbl" unicode="&#x22;" horiz-adv-x="291" 
d="M87 529c-10 0 -17 9 -21 29l-13 113c0 17 11 29 25 29h42c14 0 25 -12 25 -29l-13 -113c-2 -20 -11 -29 -21 -29h-24zM227 529c-10 0 -17 9 -21 29l-13 113c0 17 11 29 25 29h42c14 0 25 -12 25 -29l-13 -113c-2 -20 -11 -29 -21 -29h-24z" />
    <glyph glyph-name="numbersign" unicode="#" horiz-adv-x="658" 
d="M76 197h98l32 130h-113c-36 0 -29 28 -29 28l8 31s3 25 32 25h123l30 123c7 28 32 25 32 25h32s29 0 20 -35l-28 -113h125l31 123c7 28 32 25 32 25h32s29 0 20 -35l-28 -113h105c36 0 29 -28 29 -28l-8 -31s-3 -25 -32 -25h-114l-32 -130h129c36 0 29 -28 29 -28l-8 -31
s-3 -25 -32 -25h-139l-29 -121c-7 -28 -32 -25 -32 -25h-32s-29 0 -20 35l27 111h-126l-29 -121c-7 -28 -32 -25 -32 -25h-32s-29 0 -20 35l27 111h-89c-36 0 -29 28 -29 28l8 31s3 25 32 25zM293 327l-32 -130h125l32 130h-125z" />
    <glyph glyph-name="percent" unicode="%" horiz-adv-x="605" 
d="M484 671l-217 -642c-8 -26 -18 -29 -39 -29h-27c-23 0 -31 9 -25 29l216 642c8 26 18 29 39 29h28c23 0 31 -9 25 -29zM174 597c-27 0 -33 -20 -33 -40v-80c0 -20 6 -39 32 -39c27 0 34 19 34 39v80c0 20 -6 40 -33 40zM175 685c73 0 106 -52 106 -116v-106
c0 -64 -53 -110 -107 -110c-55 0 -106 44 -106 110v106c0 64 36 116 107 116zM473 244c-27 0 -33 -20 -33 -40v-80c0 -20 6 -39 32 -39c27 0 34 19 34 39v80c0 20 -6 40 -33 40zM474 332c73 0 106 -52 106 -116v-106c0 -64 -53 -110 -107 -110c-55 0 -106 44 -106 110v106
c0 64 36 116 107 116z" />
    <glyph glyph-name="ampersand" unicode="&#x26;" horiz-adv-x="610" 
d="M223 300l-28 -25c-52 -46 -60 -66 -60 -111c0 -36 30 -87 91 -87c30 0 58 11 90 49l11 13zM465 239h23c17 0 29 -13 29 -28v-29c0 -15 -12 -27 -29 -27c-21 -1 -30 0 -47 -24c22 -37 37 -47 68 -47h12c17 0 29 -13 29 -28v-29c0 -15 -12 -27 -29 -27h-16
c-50 0 -82 -5 -128 65l-8 -9c-43 -48 -82 -63 -142 -63c-116 0 -178 83 -179 171c-1 78 31 123 72 159l57 51l-20 33c-79 131 15 236 126 236c72 0 151 -38 151 -140c0 -18 -12 -29 -27 -29h-37c-15 0 -27 11 -27 29c0 21 -13 58 -58 58c-55 0 -86 -54 -57 -99l168 -261
c24 24 34 38 69 38z" />
    <glyph glyph-name="parenleft" unicode="(" horiz-adv-x="317" 
d="M60 287v136c0 252 75 378 149 439c23 17 42 -7 42 -7l23 -30s17 -22 -5 -40c-64 -57 -102 -146 -102 -362v-136c0 -216 38 -305 102 -362c22 -18 5 -40 5 -40l-23 -30s-19 -24 -42 -7c-74 61 -149 187 -149 439z" />
    <glyph glyph-name="parenright" unicode=")" horiz-adv-x="368" 
d="M301 423v-136c0 -252 -75 -378 -149 -439c-23 -17 -42 7 -42 7l-23 30s-17 22 5 40c64 57 102 146 102 362v136c0 216 -38 305 -102 362c-22 18 -5 40 -5 40l23 30s19 24 42 7c74 -61 149 -187 149 -439z" />
    <glyph glyph-name="slash" unicode="/" horiz-adv-x="348" 
d="M354 706l-242 -712c-8 -26 -18 -29 -39 -29h-27c-23 0 -31 9 -25 29l241 712c8 26 18 29 39 29h28c23 0 31 -9 25 -29z" />
    <glyph glyph-name="less" unicode="&#x3c;" horiz-adv-x="346" 
d="M116 269l185 -122c15 -9 19 -21 19 -36v-28c0 -15 -15 -23 -29 -14l-258 165c-8 5 -13 13 -13 23v23c0 15 8 21 18 27l253 162c14 9 29 1 29 -14v-28c0 -15 -4 -27 -19 -36z" />
    <glyph glyph-name="at" unicode="@" horiz-adv-x="724" 
d="M837 509l-102 -116l102 -52l-7 -2l-494 -140l-12 -3v0v0v173l40 44l-136 -39l1 -83s0 -22 -22 -22h-29s-22 0 -22 22v62l-70 -19l-13 -4v1l-1 -1v13v155l47 51l-286 -81l-12 -3l103 115l-103 53l7 2l328 93v51s0 21 22 21h45s15 0 23 -16l12 -27l64 18l12 3v-168v-5
l-8 -9l5 -11l84 199c8 16 24 16 24 16h43s23 0 23 -21v-158l69 19l12 4v-13v-148v-8v0l-47 -50l286 81zM545 446v18l-5 -2v-22zM555 456v10l-6 -1v-14zM559 460l8 10l-8 -3v-7zM439 666l-29 -72l28 8zM324 754l-5 -5v-149l4 5l1 1v1v10v137zM269 695l-6 -6v-137l6 2v141z
M272 699v-144l6 1v148zM282 709v-149l5 6v149zM291 719v-149l5 6v148zM300 729v-149l6 6v149zM310 738v-148l5 6v148zM321 764l-60 -16l14 -32zM259 685l-5 -6v-129l5 1v134zM250 675l-6 -6v-122l6 1v127zM241 665l-6 -6v-115l6 2v119zM231 654l-2 -2l-3 -3v-108l5 2v111z
M225 662l-3 8v-11zM129 545l-5 -6v-27l5 2v31zM133 549v-34l5 2v38v0zM142 559v-41l6 1v46zM151 569v-48l5 1v37v11v3zM120 535l-6 -6v-19l6 2v23zM105 507l5 2v16l-5 -6v-12zM101 515l-11 -12l11 3v9zM227 384l150 42l15 4l43 13l70 20l72 20v148l-15 -4l-57 -16l-67 -20
l-32 -9l-125 -35l-8 -2l-7 -2l-110 -31l-73 -21v-146v-2l13 4l60 17zM536 461l-6 -1v-29l6 5v25zM527 458l-6 -1v-37l6 6v32zM517 456l-5 -2v-43l5 5v40zM508 453l-3 -1v-37v-10v-2l2 2l1 1v47zM434 432l-6 -1v-110l4 4l1 60l1 10v4v33zM424 429l-5 -1v-117l5 6v112z
M415 427l-5 -2v-124l5 6v120zM406 424l-6 -1v-132l6 6v127zM397 422l-6 -2v-139l6 5v136zM387 419l-5 -2v-146l5 6v142zM378 415l-6 -6v-148l6 6v148zM363 399v-148l5 6v148zM354 389v-148l5 6v148zM345 379v-148l5 6v148zM334 220l7 7v148l-7 -8v0v-147zM807 342l-87 48
l88 101l-282 -80l-21 -23v-97s0 -22 -23 -22h-28s-22 0 -22 22v19l-95 -101zM34 141c0 0 1 0 1 -1l6 -12l5 12c0 1 1 1 1 1h3s1 0 1 -2v-29s0 -1 -1 -1h-2s-1 0 -1 1v23l-4 -11c0 -1 -1 -1 -1 -1h-2c-1 0 -1 0 -2 1l-4 11l1 -23s0 -1 -2 -1h-2s-1 0 -1 1v29s0 2 1 2h3z
M69 141c0 0 1 0 1 -1l8 -30c1 -1 -1 -1 -1 -1h-2s-1 0 -1 1l-2 8h-10l-2 -8c0 -1 -1 -1 -2 -1h-2s-1 0 -1 1l9 30c0 1 1 1 1 1h4zM67 136l-4 -13h8zM91 141c7 0 10 -4 10 -10c0 -5 -2 -7 -5 -9l3 -7c1 -1 1 -2 2 -2h1c1 0 1 -1 1 -1v-2s0 -1 -1 -1h-1c-3 0 -4 1 -6 4l-4 8
h-3v-11c0 -1 -1 -1 -1 -1h-3s-1 0 -1 1v31h8zM88 126h3c4 0 5 1 5 5c0 5 -1 5 -5 5h-3v-10zM125 133c0 0 0 -1 -1 -1l-1 -1c-1 0 -2 1 -2 1c0 3 -2 5 -5 5c-4 0 -5 -2 -5 -6v-12c0 -5 1 -6 5 -6c3 0 5 1 5 6c0 1 1 1 1 1h2s1 0 1 -1c0 -6 -2 -11 -9 -11c-6 0 -10 5 -10 11
v12c0 6 4 10 10 10s9 -3 9 -8zM150 131v-12c0 -6 -3 -11 -10 -11s-9 5 -9 11v12c0 5 2 10 9 10s10 -5 10 -10zM135 131v-12c0 -5 2 -6 5 -6s5 1 5 6v12c0 4 -2 6 -5 6s-5 -2 -5 -6zM154 117v8c0 5 3 14 15 14c7 0 14 -5 14 -14v-4c0 -8 -3 -14 -12 -14c-6 0 -10 4 -10 8
c0 3 1 6 6 7l5 1v2c0 2 -1 3 -3 3s-3 -1 -3 -2s-1 -2 -1 -2h-2c-1 0 -1 1 -1 2c0 4 3 6 7 6s7 -2 7 -8v-8c0 -1 0 -2 -1 -2h-2s-1 1 -1 2v3l-5 -1c-2 0 -2 -2 -2 -3s2 -3 7 -3c6 0 7 3 7 9v4c0 7 -5 10 -10 10c-8 0 -10 -6 -10 -11v-7c0 -7 2 -10 9 -12c1 0 1 -1 1 -1v-2
c0 -1 -1 -1 -2 -1c-8 2 -13 7 -13 16zM203 141c2 0 2 -2 2 -2v-1s0 -2 -2 -2h-10v-9h7c2 0 2 -1 2 -1v-2s0 -1 -2 -1h-7v-13c-1 -1 -2 -1 -2 -1h-2s-1 0 -1 1v31h15zM227 131v-12c0 -6 -3 -11 -10 -11c-6 0 -9 5 -9 11v12c0 5 3 10 9 10c7 0 10 -5 10 -10zM212 131v-12
c0 -5 2 -6 5 -6s6 1 6 6v12c0 4 -3 6 -6 6s-5 -2 -5 -6zM241 141c7 0 10 -4 10 -10c0 -5 -2 -7 -6 -9l4 -7c0 -1 1 -2 2 -2h1c1 0 1 -1 1 -1v-2s0 -1 -1 -1h-1c-3 0 -5 1 -7 4l-3 8h-3v-11c0 -1 -2 -1 -2 -1h-1s-2 0 -2 1v31h8zM238 126h3c4 0 5 1 5 5c0 5 -2 5 -5 5h-3v-10
zM274 141c2 0 2 -2 2 -2v-1s0 -2 -1 -2h-12v-9h8c2 0 2 -1 2 -1v-2s0 -1 -2 -1h-8v-10h11c2 0 2 -1 2 -1v-2s0 -1 -1 -1h-17v32h16zM283 141c1 0 1 -1 1 -1l6 -26h1l6 26l1 1h2s2 0 1 -2l-7 -29c0 -1 -1 -1 -1 -1h-4s-2 0 -2 1l-7 29c-1 2 1 2 1 2h2zM322 141c2 0 2 -2 2 -2
v-1s0 -2 -2 -2h-12v-9h9c2 0 2 -1 2 -1v-2s0 -1 -2 -1h-9v-10h12c2 0 2 -1 2 -1v-2s0 -1 -2 -1h-16v32h16zM337 141c7 0 10 -4 10 -10c0 -5 -2 -7 -5 -9l3 -7c1 -1 1 -2 2 -2h1c1 0 1 -1 1 -1v-2s0 -1 -1 -1h-1c-3 0 -5 1 -6 4l-4 8h-3v-11c0 -1 -1 -1 -1 -1h-3s-1 0 -1 1
v31h8zM334 126h3c4 0 5 1 5 5c0 5 -1 5 -5 5h-3v-10zM365 141c0 0 1 0 1 -1l9 -30c0 -1 -1 -1 -1 -1h-3l-1 1l-2 8h-10l-2 -8c0 -1 -1 -1 -1 -1h-2s-2 0 -2 1l9 30c0 1 1 1 1 1h4zM363 136l-4 -13h8zM384 141c0 0 1 0 1 -1l10 -23l-1 22s0 2 2 2h2s1 0 1 -2v-29s0 -1 -1 -1
h-3s-1 0 -1 1l-10 23v-23s0 -1 -1 -1h-2s-1 0 -1 1v29s0 2 1 2h3zM415 141c7 0 9 -5 9 -11v-11c0 -6 -2 -10 -9 -10h-9v32h9zM410 113h5c3 0 5 2 5 6v11c0 5 -2 6 -5 6h-5v-23zM449 133c0 0 0 -1 -1 -1l-2 -1s-1 1 -2 1c0 3 -1 5 -4 5c-4 0 -5 -2 -5 -6v-12c0 -5 1 -6 5 -6
c3 0 5 1 5 6c0 1 1 1 1 1h2s1 0 1 -1c0 -6 -3 -11 -9 -11c-7 0 -10 5 -10 11v12c0 6 3 10 10 10c6 0 8 -3 9 -8zM473 131v-12c0 -6 -3 -11 -9 -11c-7 0 -10 5 -10 11v12c0 5 3 10 10 10c6 0 9 -5 9 -10zM458 131v-12c0 -5 3 -6 6 -6s5 1 5 6v12c0 4 -2 6 -5 6s-6 -2 -6 -6z
M482 141c0 0 1 0 1 -2v-19c0 -6 2 -7 5 -7s5 1 5 7v19c0 2 2 2 2 2h1s2 0 2 -2v-19c0 -6 -3 -12 -10 -12s-9 6 -9 12v19c0 2 1 2 1 2h2zM508 141c0 0 1 0 1 -1l10 -23v22s0 2 1 2h2s1 0 1 -2v-29s0 -1 -1 -1h-3s-1 0 -2 1l-9 23v-23s0 -1 -1 -1h-2s-1 0 -1 1v29s0 2 1 2h3z
M546 141c1 0 1 -2 1 -2v-1s0 -2 -1 -2h-6v-26c0 -1 -2 -1 -2 -1h-2s-1 0 -1 1v26h-6c-1 0 -1 2 -1 2v1s0 2 1 2h17zM555 141c0 0 1 0 1 -2v-29c0 -1 -1 -1 -1 -1h-2s-1 0 -1 1v29c0 2 1 2 1 2h2zM566 141c0 0 1 0 2 -1l9 -23v22s0 2 1 2h2s1 0 1 -2v-29s0 -1 -1 -1h-3
s-1 0 -1 1l-10 23v-23s0 -1 -1 -1h-2s-1 0 -1 1v29s0 2 1 2h3zM606 133c0 0 0 -1 -1 -1l-2 -1c-1 0 -1 1 -2 1c0 3 -1 5 -4 5c-4 0 -5 -2 -5 -6v-12c0 -5 1 -6 5 -6c3 0 5 2 5 6v2h-5c-1 0 -1 1 -1 1v2s0 1 1 1h8s1 0 1 -1v-5c0 -6 -2 -11 -9 -11c-6 0 -10 5 -10 11v12
c0 6 3 10 10 10c6 0 8 -3 9 -8zM614 113c0 0 1 0 1 -1v-2c0 -1 -1 -1 -1 -1h-3s-1 0 -1 1v2c0 1 1 1 1 1h3zM638 133c0 0 0 -1 -1 -1l-1 -1c-1 0 -2 1 -2 1c0 3 -2 5 -5 5c-4 0 -5 -2 -5 -6v-12c0 -5 1 -6 5 -6c3 0 5 1 5 6c0 1 1 1 1 1h2s1 0 1 -1c0 -6 -2 -11 -9 -11
c-6 0 -10 5 -10 11v12c0 6 4 10 10 10s9 -3 9 -8zM663 131v-12c0 -6 -3 -11 -10 -11s-10 5 -10 11v12c0 5 3 10 10 10s10 -5 10 -10zM648 131v-12c0 -5 2 -6 5 -6s5 1 5 6v12c0 4 -2 6 -5 6s-5 -2 -5 -6zM673 141c0 0 1 0 1 -1l5 -12l5 12c1 1 2 1 2 1h2s2 0 2 -2v-29
s0 -1 -2 -1h-1s-2 0 -2 1l1 23l-4 -11l-1 -1h-3s-1 0 -1 1l-4 11v-23s0 -1 -1 -1h-2s-1 0 -1 1v29s0 2 1 2h3zM139 64c1 0 1 -1 1 -1v-2s0 -2 -1 -2h-6v-26c0 -1 -1 -1 -1 -1h-2s-2 0 -2 1v26h-6c-1 0 -1 2 -1 2v1s0 2 1 2h17zM148 64c0 0 1 -1 1 -2v-9s2 2 5 2
c4 0 6 -3 6 -8v-14c0 -1 0 -1 -1 -1h-2s-1 0 -1 1v14c0 2 -1 4 -3 4c-3 0 -4 -2 -4 -4v-14c0 -1 -1 -1 -1 -1h-2c-1 0 -1 0 -1 1v29c0 1 0 2 1 2h2zM180 47v-14c0 -1 0 -1 -1 -1h-2s-1 0 -1 1v0c-1 -1 -3 -2 -5 -2c-3 0 -6 3 -6 7c0 3 1 5 6 6l5 2v2c0 2 -2 3 -3 3
c-2 0 -3 -1 -3 -2s-1 -2 -2 -2h-1c-1 0 -2 1 -2 2c0 3 3 6 8 6c4 0 7 -3 7 -8zM169 38c0 -1 1 -3 3 -3s4 2 4 4v3l-5 -2c-2 0 -2 -1 -2 -2zM189 55c0 0 1 -1 1 -2v0c0 1 2 2 4 2c5 0 7 -3 7 -8v-14c0 -1 -1 -1 -1 -1h-2c-1 0 -1 0 -1 1v14c0 2 -1 4 -3 4c-3 0 -4 -2 -4 -4
v-14c0 -1 -1 -1 -1 -1h-2c-1 0 -1 0 -1 1v20c0 1 0 2 1 2h2zM223 33c1 -1 0 -1 0 -1h-3s0 -1 -1 0l-6 11l-2 -3v-7c0 -1 -1 -1 -1 -1h-2c-1 0 -1 0 -1 1v29c0 1 0 2 1 2h2s1 -1 1 -2v-16l6 8c1 1 2 1 2 1h2s2 0 1 -2l-6 -7zM234 35c1 0 2 1 2 3c0 1 0 2 -2 3l-3 2
c-3 2 -4 4 -4 6c0 3 2 6 7 6c2 0 6 -1 6 -5c1 -2 -1 -2 -1 -2h-1c-1 0 -1 0 -2 1c0 2 -1 2 -2 2c-2 0 -3 -1 -3 -2s1 -2 2 -3l3 -2c2 -1 5 -3 5 -6c0 -4 -3 -7 -7 -7c-6 0 -8 5 -8 8c0 1 1 1 1 1h2c1 0 1 0 1 -2c0 -1 1 -3 4 -3zM265 64h1c1 0 1 -1 1 -1v-2s0 -1 -1 -1h-1
c-3 0 -3 -2 -3 -4v-2h4c1 0 1 0 1 -1v-1c0 -1 0 -2 -1 -2h-4v-17c0 -1 -1 -1 -1 -1h-2c-1 0 -1 0 -1 1v17h-1c-1 0 -2 1 -2 2v1c0 1 1 1 2 1h1v2c0 5 2 8 7 8zM277 31c-5 0 -8 3 -8 8v7c0 6 3 9 8 9s8 -3 8 -9v-7c0 -5 -3 -8 -8 -8zM274 46v-7c0 -2 0 -4 3 -4s4 2 4 4v7
c0 3 -1 5 -4 5s-3 -2 -3 -5zM300 54v-2s0 -1 -1 -1c-4 0 -5 -2 -5 -4v-14c0 -1 -1 -1 -1 -1h-2c-1 0 -1 0 -1 1v20c0 1 0 2 1 2h2s1 -1 1 -2v0c1 1 2 2 5 2c1 0 1 -1 1 -1zM327 33c0 -1 0 -1 -1 -1h-1c-1 0 -2 0 -2 1v0c-1 -1 -3 -2 -4 -2c-5 0 -8 3 -8 8v14c0 1 1 2 2 2h1
c1 0 2 -1 2 -2v-14c0 -3 1 -4 3 -4c3 0 4 1 4 4v14c0 1 1 2 1 2h2c1 0 1 -1 1 -2v-20zM339 35c2 0 3 1 3 3c0 1 0 2 -2 3l-4 2c-3 2 -3 4 -3 6c0 3 2 6 6 6c3 0 6 -1 7 -5c0 -2 -1 -2 -1 -2h-1c-1 0 -2 0 -2 1c0 2 -2 2 -3 2s-2 -1 -2 -2s0 -2 2 -3l3 -2c2 -1 4 -3 4 -6
c0 -4 -3 -7 -7 -7c-6 0 -7 5 -7 8c0 1 1 1 1 1h1c1 0 2 0 2 -2c0 -1 0 -3 3 -3zM357 62v-2c0 -1 -1 -1 -2 -1h-2c-1 0 -1 0 -1 1v2c0 1 0 2 1 2h2c1 0 2 -1 2 -2zM355 55c1 0 1 -1 1 -2v-20c0 -1 0 -1 -1 -1h-2s-1 0 -1 1v20c0 1 1 2 1 2h2zM365 55c0 0 1 -1 1 -2v0
c0 1 2 2 4 2c5 0 7 -3 7 -8v-14c0 -1 0 -1 -1 -1h-2s-1 0 -1 1v14c0 2 -1 4 -3 4c-3 0 -4 -2 -4 -4v-14c0 -1 -1 -1 -1 -1h-2c-1 0 -1 0 -1 1v20c0 1 0 2 1 2h2zM398 30c0 -6 -3 -8 -7 -8c-5 0 -8 2 -8 7c0 1 0 1 1 1h1c1 0 2 0 2 -1c0 -3 2 -3 4 -3s3 1 3 4v3
c-1 -1 -3 -2 -4 -2c-5 0 -7 3 -7 8v8c0 4 2 8 7 8c1 0 3 -1 4 -2v1c0 1 1 1 1 1h2c1 0 1 -1 1 -1v-24zM387 47v-8c0 -3 1 -4 3 -4s4 1 4 4v8c0 3 -2 4 -4 4s-3 -1 -3 -4zM419 64c0 0 1 0 2 -1l5 -12l5 12l1 1h3s2 0 2 -2v-29s0 -1 -2 -1h-2s-1 0 -1 1v23l-4 -11
c0 -1 0 -1 -1 -1h-2c-1 0 -1 0 -1 1l-5 11l1 -23s0 -1 -2 -1h-1s-2 0 -2 1v29s0 2 2 2h2zM457 48v-3c0 -1 0 -2 -2 -2l-9 -2v-2c0 -2 1 -4 3 -4c3 0 4 2 4 4c0 1 2 1 2 1h1c1 0 1 0 1 -2c0 -4 -3 -7 -8 -7c-4 0 -7 3 -7 8v8c0 5 3 8 8 8c4 0 7 -3 7 -7zM446 47v-2l7 1v2
c0 2 -1 3 -3 3c-3 0 -4 -2 -4 -4zM466 64c1 0 1 -1 1 -2v-23c0 -2 0 -4 3 -4h1c1 0 1 -1 1 -1v-2s0 -1 -1 -1h-1c-5 0 -7 3 -7 8v23c0 1 1 2 1 2h2zM478 64c0 0 1 -1 1 -2v-9c1 1 2 2 4 2c4 0 7 -3 7 -8v-8c0 -5 -3 -8 -7 -8c-2 0 -3 1 -4 2v0c0 -1 -1 -1 -1 -1h-2
c-1 0 -1 0 -1 1v29c0 1 0 2 1 2h2zM479 47v-8c0 -2 2 -4 4 -4s3 1 3 4v8c0 2 -1 4 -3 4c-3 0 -4 -2 -4 -4zM503 31c-5 0 -8 3 -8 8v7c0 6 3 9 8 9c4 0 7 -3 7 -9v-7c0 -5 -3 -8 -7 -8zM499 46v-7c0 -2 1 -4 4 -4s3 2 3 4v7c0 3 0 5 -3 5s-4 -2 -4 -5zM531 33
c0 -1 -1 -1 -1 -1h-2c-1 0 -1 0 -1 1v0c-1 -1 -3 -2 -5 -2c-4 0 -7 3 -7 8v14c0 1 1 2 1 2h2c1 0 1 -1 1 -2v-14c0 -3 2 -4 4 -4s4 1 4 4v14c0 1 0 2 1 2h2s1 -1 1 -2v-20zM539 55c1 0 1 -1 1 -2v0c1 1 2 2 5 2c4 0 7 -3 7 -8v-14c0 -1 -1 -1 -2 -1h-1c-1 0 -2 0 -2 1v14
c0 2 0 4 -3 4s-4 -2 -4 -4v-14c0 -1 0 -1 -1 -1h-2s-1 0 -1 1v20c0 1 1 2 1 2h2zM568 54v-2s-1 -1 -2 -1c-4 0 -4 -2 -4 -4v-14c0 -1 -1 -1 -2 -1h-1c-1 0 -2 0 -2 1v20c0 1 1 2 2 2h1c1 0 2 -1 2 -2v0c1 1 2 2 4 2c1 0 2 -1 2 -1zM585 48v-3c0 -1 -1 -2 -2 -2l-9 -2v-2
c0 -2 1 -4 3 -4c3 0 4 2 4 4c0 1 1 1 1 1h1c1 0 2 0 2 -2c0 -4 -3 -7 -8 -7s-8 3 -8 8v8c0 5 3 8 8 8s8 -3 8 -7zM574 47v-2l7 1v2c0 2 -2 3 -4 3c-3 0 -3 -2 -3 -4zM590 34c0 1 1 3 2 3c2 0 3 -2 3 -3c0 -2 -1 -3 -3 -3c-1 0 -2 1 -2 3zM591 40l-1 23h5l-1 -23h-3zM690 167
v-13h-660v13h660zM690 93v-12h-660v12h660zM103 47l-36 -22v15h-37v15h37v14zM616 47l36 22v-14h38v-15h-38v-15zM132 563l24 25v130l-305 -87l87 -47l-88 -101zM157 498c0 0 2 0 3 -1l27 -34l-11 38s-1 2 1 3h3s3 1 3 -1l14 -49s0 -2 -2 -3l-5 -1s-1 0 -2 1l-27 34l11 -38
s0 -2 -2 -2l-3 -1s-2 -1 -2 2l-14 48s0 2 2 3zM220 515c2 1 3 -1 3 -1l1 -3s0 -2 -2 -3l-19 -5l4 -16l14 4c2 1 3 -1 3 -1l1 -3s1 -2 -2 -3l-14 -4l4 -16l20 5c2 1 2 -1 2 -1l1 -3s1 -2 -1 -3l-27 -7l-14 53zM258 526c3 1 3 -2 3 -2l1 -3s0 -2 -2 -2l-19 -6l4 -15l15 4
c2 0 2 -2 2 -2l1 -3s1 -2 -2 -2l-14 -4l5 -16l19 5c2 0 3 -2 3 -2l1 -3s0 -2 -2 -2l-27 -7l-14 52zM285 533c11 3 17 -3 20 -13l5 -19c3 -9 1 -18 -11 -21l-15 -4l-14 53zM290 485l7 2c6 2 8 5 6 12l-5 19c-2 7 -6 9 -11 8l-8 -2zM333 546c0 0 2 1 3 -1l14 -17l3 22
c0 2 2 2 2 2l4 1s2 1 3 -1l13 -49s1 -2 -1 -2l-3 -1s-3 -1 -3 1l-10 38l-2 -19c0 -2 -1 -2 -1 -2l-4 -1c-1 0 -2 0 -3 1l-12 15l12 -37s0 -3 -2 -3l-3 -1s-2 0 -3 2l-13 48s-1 2 2 3zM408 549l5 -20c3 -9 0 -18 -11 -21c-11 -4 -18 3 -20 13l-6 19c-2 10 0 19 11 22
s18 -3 21 -13zM383 542l6 -19c2 -8 6 -10 11 -8c5 1 8 5 6 12l-6 20c-2 7 -6 9 -11 8c-5 -2 -7 -6 -6 -13zM426 572c12 3 18 -2 21 -11c2 -9 0 -14 -5 -18l8 -10c2 -2 4 -3 5 -3l1 1c2 0 3 -2 3 -2l1 -2s1 -3 -2 -3l-1 -1c-5 -1 -8 1 -13 6l-9 11l-6 -2l6 -19
c0 -2 -2 -2 -2 -2l-3 -1s-2 -1 -3 2l-14 50zM427 546l6 1c6 2 8 6 6 12c-1 7 -5 7 -10 6l-6 -2zM481 587c2 1 3 -2 3 -2v-3s1 -2 -1 -2l-19 -6l4 -15l14 4c2 0 3 -2 3 -2l1 -3s0 -2 -2 -2l-14 -4l4 -16l19 5c3 1 3 -1 3 -1l1 -3s1 -2 -1 -3l-27 -7l-15 52zM196 426
c1 -1 1 -2 -1 -3l-1 -1c-2 0 -3 0 -3 1c-2 4 -5 5 -9 4c-5 -1 -6 -4 -5 -10l5 -17c1 -6 4 -7 9 -6s6 4 5 10c-1 2 1 2 1 2l3 1s1 1 2 -1c2 -8 0 -15 -9 -18s-15 2 -17 11l-5 16c-2 8 1 16 9 18c9 2 14 -2 16 -7zM205 440c0 0 2 0 3 -2l4 -16l14 3l-4 17c-1 2 1 2 1 2l3 1
s2 1 2 -1l11 -41c1 -2 -1 -2 -1 -2l-3 -1s-1 -1 -2 1l-5 19l-14 -4l5 -19c1 -1 -1 -2 -1 -2l-3 -1s-2 0 -2 2l-11 41c-1 1 1 2 1 2zM252 452c0 0 1 1 2 -1l23 -37c1 -3 -2 -3 -2 -3l-2 -1c-1 0 -2 0 -3 1l-6 11l-13 -3v-13c0 -1 -1 -2 -2 -2l-3 -1s-2 -1 -2 2l1 44
c0 1 1 2 1 2zM251 446v-21l10 3zM283 461c9 2 14 -2 17 -10c1 -7 0 -11 -4 -14l7 -9c1 -2 3 -2 4 -2h1c2 1 2 -1 2 -1l1 -3s0 -1 -2 -2h-1c-4 -1 -7 0 -11 4l-7 10l-5 -1l5 -16c0 -2 -2 -3 -2 -3h-2s-2 -1 -3 1l-11 43zM283 439l5 1c5 1 7 5 5 10c-1 5 -4 6 -9 5l-5 -1z
M321 471c0 0 1 1 2 -1l23 -38c1 -1 -1 -2 -1 -2l-3 -1c-1 0 -2 0 -2 1l-7 12l-13 -4v-13c0 -1 0 -2 -1 -2l-3 -1s-2 0 -2 2v44c0 1 2 2 2 2zM320 465v-20l10 2zM369 473c0 0 0 -1 -1 -2l-2 -1c-1 -1 -2 -1 -3 0c-1 4 -4 6 -8 5c-5 -2 -7 -5 -5 -11l4 -16c2 -6 5 -8 10 -7
c4 2 6 5 4 10c0 2 2 3 2 3h2s2 1 3 -1c2 -8 0 -15 -10 -18c-8 -2 -14 2 -17 11l-4 17c-2 8 0 15 9 17c8 3 13 -1 16 -7zM396 492c2 0 2 -1 2 -1l1 -3s1 -2 -1 -2l-9 -3l10 -36c1 -2 -1 -2 -1 -2l-3 -1s-1 -1 -2 1l-10 37l-8 -2c-2 -1 -3 1 -3 1v2s-1 2 1 3zM427 501
c2 0 2 -2 2 -2l1 -2s0 -2 -1 -3l-17 -4l4 -13l12 3c2 0 2 -1 2 -1l1 -3s1 -1 -1 -2l-13 -3l4 -14l17 5c1 0 2 -2 2 -2l1 -2s0 -2 -2 -2l-22 -6l-13 44zM448 506c9 3 14 -1 17 -9c2 -8 0 -12 -5 -15l8 -9c1 -1 3 -2 4 -2l1 1c2 0 2 -2 2 -2l1 -2s0 -2 -2 -2l-1 -1
c-4 -1 -6 1 -11 5l-7 9l-5 -1l4 -16c1 -2 -1 -2 -1 -2l-2 -1s-2 -1 -3 1l-11 43zM448 484l5 1c5 2 7 5 5 10c-1 6 -4 6 -9 5l-5 -1zM497 509c1 -1 1 -2 -1 -3l-2 -1c-1 0 -2 0 -3 1c-2 4 -4 5 -8 3c-5 -1 -5 -4 -5 -6c1 -2 2 -4 4 -5l13 -3c4 0 8 -4 9 -8
c2 -7 -2 -14 -10 -17c-5 -1 -14 0 -17 10c0 2 2 2 2 2l2 1s2 0 3 -1c1 -6 5 -6 8 -5c6 1 6 5 6 8c-1 2 -2 4 -6 4l-10 3c-7 1 -9 6 -10 9c-2 7 3 13 9 15c8 2 14 -1 16 -7zM522 492c1 -2 -1 -3 -1 -3h-2s-2 -1 -3 1l-1 5c-1 2 -1 5 0 7l3 7c1 2 1 3 0 5c-1 4 -3 5 -7 4
s-4 -4 -3 -8c1 -1 -1 -2 -1 -2l-3 -1s-2 0 -2 2c-2 7 1 13 8 15c8 2 13 -2 15 -8c0 -3 0 -5 -1 -8l-3 -7c-1 -1 0 -2 0 -4zM522 486c1 0 3 0 3 -2v-3c1 -1 0 -1 -1 -2l-3 -1c-1 0 -2 1 -2 2l-1 3c0 1 0 2 1 2zM-67 643c0 0 2 0 2 -1l17 -36l-3 36c0 2 1 2 2 2l3 1s1 1 3 -2
l15 -32l-4 40c0 1 1 2 2 2l3 1s2 0 2 -2l4 -46c0 -2 -2 -2 -2 -2l-5 -2s-2 0 -3 1l-13 28l3 -31c1 -1 -1 -2 -1 -2l-6 -2s-2 0 -3 2l-20 41c-1 2 1 3 1 3zM-6 660c0 0 1 0 2 -1l25 -41c1 -2 -1 -2 -1 -2l-3 -1c-1 -1 -2 0 -3 1l-7 12l-14 -4v-14c0 -1 0 -2 -1 -2l-3 -1
s-3 -1 -3 2l1 47c0 2 1 2 1 2zM-7 652v-21l11 3l-11 19v-1zM21 667c0 0 2 1 3 -1l24 -30l-10 34s-1 2 1 2l3 1s2 1 2 -1l13 -44s0 -2 -2 -3l-4 -1s-1 0 -2 1l-24 31l10 -34s0 -2 -2 -3h-3s-1 -1 -2 1l-12 44s-1 2 1 2zM60 678c0 0 1 1 2 -1l24 -30l-10 34s0 2 2 2l3 1
s1 1 2 -1l12 -44s1 -2 -1 -3l-4 -1s-2 0 -3 1l-24 30l10 -33s1 -2 -1 -3l-3 -1s-2 0 -2 2l-13 44s0 2 2 2zM108 692c0 0 2 0 3 -1l24 -41c2 -2 -1 -2 -1 -2l-3 -1s-1 0 -2 1l-7 12l-15 -4l1 -14c0 -1 -1 -2 -1 -2l-4 -1s-2 -1 -2 2v47c0 2 2 2 2 2zM107 685v-22l11 3z
M23 601c9 2 15 -2 17 -10c1 -4 0 -8 -2 -10c5 -1 8 -5 9 -9c2 -8 0 -16 -10 -19l-13 -3l-13 47zM23 580l4 1c5 1 8 4 7 9c-2 4 -5 6 -9 4l-6 -1zM29 558l6 1c5 2 7 5 6 11c-2 6 -6 6 -11 5l-6 -2zM49 608c0 0 2 0 2 -1l8 -29c3 -9 6 -11 11 -9c5 1 7 4 4 13l-8 29
c0 2 2 2 2 2l2 1s2 0 3 -1l8 -29c3 -9 1 -19 -9 -22c-10 -2 -17 5 -20 14l-7 29c-1 2 1 2 1 2zM84 618c1 0 2 0 3 -1l15 -21h1l2 26c0 1 1 2 2 2l3 1s2 1 2 -2l-4 -48c0 -2 0 -2 -1 -2l-3 -1c-1 0 -3 -1 -2 1v14v0c-1 0 -1 0 -2 1l-20 26c-2 2 -1 3 0 3zM140 596
c0 -2 -2 -3 -2 -3l-2 -1s-2 0 -3 2l-1 5c-1 3 -1 6 0 8l3 7c1 2 1 4 0 6c-1 4 -3 5 -7 4c-5 -1 -5 -4 -4 -8c1 -2 -1 -2 -1 -2l-3 -1s-2 -1 -2 1c-3 8 1 14 8 16c9 3 14 -2 16 -8c0 -3 1 -5 0 -8l-4 -8c-1 -1 0 -2 0 -5zM140 590c1 0 2 -1 2 -2l1 -3c0 -1 0 -2 -1 -3h-4
c-1 -1 -2 0 -2 1l-1 3c0 1 0 2 1 3zM527 396c1 0 2 0 2 -1l18 -36l-3 36c-1 2 0 2 1 2l3 1c1 0 2 1 3 -2l16 -32l-4 40c0 1 1 2 1 2l4 1s2 1 2 -2l4 -46c0 -2 -2 -3 -2 -3l-6 -1s-1 -1 -2 1l-14 29l4 -32c0 -2 -2 -3 -2 -3l-6 -1s-1 -1 -2 1l-21 42c-1 2 1 3 1 3zM588 413
c11 3 17 -1 19 -10c2 -8 0 -12 -4 -16l8 -9c1 -2 3 -3 4 -3l1 1c2 0 3 -2 3 -2v-2s1 -2 -1 -3h-1c-5 -2 -8 0 -12 4l-9 11l-5 -2l5 -17c1 -2 -1 -2 -1 -2l-3 -1s-2 -1 -3 1l-13 47zM589 389l6 2c5 1 7 4 5 10c-1 6 -5 7 -10 6l-5 -2zM618 422c0 0 2 0 3 -2l13 -44
c0 -2 -2 -3 -2 -3l-3 -1s-2 0 -2 2l-13 44c0 2 2 3 2 3zM653 431c2 1 3 -1 3 -1v-3s1 -2 -1 -2l-9 -3l11 -40c1 -2 -1 -2 -1 -2l-3 -1s-2 0 -3 1l-11 40l-9 -2c-2 -1 -2 1 -2 1l-1 3s-1 2 1 2zM687 441c2 0 2 -1 2 -1l1 -3s1 -2 -1 -3l-18 -5l4 -14l13 4c2 1 2 -2 2 -2l1 -2
s1 -2 -1 -3l-13 -4l4 -14l17 5c3 0 3 -1 3 -1l1 -3s0 -2 -1 -3l-25 -7l-14 49zM547 337c0 0 2 0 3 -1l13 -16l2 20c0 2 2 2 2 2l4 1s2 1 3 -1l12 -44s1 -3 -1 -3l-3 -1s-2 0 -3 2l-9 34l-2 -17c0 -2 0 -2 -1 -2l-3 -1c-1 0 -2 -1 -2 1l-11 14l10 -35s1 -1 -2 -2l-2 -1
s-2 -1 -3 2l-12 44s-1 2 1 3zM607 354c2 0 3 -2 3 -2l1 -2s0 -2 -2 -3l-18 -5l5 -14l13 4c2 0 2 -2 2 -2l1 -2s1 -2 -1 -3l-14 -4l5 -14l17 5c2 0 3 -2 3 -2l1 -2s0 -2 -2 -3l-24 -7l-14 49zM634 317c1 0 2 -1 3 -2l1 -3c0 -1 -1 -2 -2 -3h-3c-1 -1 -2 0 -3 1l-1 3
c0 1 1 2 2 3zM622 358c0 0 2 1 3 -2l9 -33c1 -2 -1 -2 -1 -2l-3 -1s-2 -1 -3 1l-9 34c-1 1 1 2 1 2z" />
    <glyph glyph-name="minus" unicode="&#x2212;" horiz-adv-x="492" 
d="M123 310h297c17 0 29 -13 29 -28v-29c0 -15 -12 -27 -29 -27h-297c-17 0 -29 12 -29 27v29c0 15 12 28 29 28z" />
    <glyph glyph-name="dollar" unicode="$" horiz-adv-x="505" 
d="M238 781h37c15 0 27 -12 27 -29v-48c93 -15 144 -79 157 -161c2 -12 -1 -28 -20 -34l-35 -9c-19 -5 -36 1 -41 22c-11 45 -29 70 -61 81l1 -212l69 -36c61 -32 96 -97 96 -163c0 -100 -59 -178 -164 -195v-55c0 -17 -13 -29 -28 -29h-36c-15 0 -27 12 -27 29v56
c-76 14 -159 69 -159 200c0 29 29 29 29 29h40s28 0 28 -29c0 -62 28 -91 61 -103v235l-48 25c-92 47 -103 121 -103 173c0 97 65 158 150 174v50c0 17 12 29 27 29zM308 281l-5 2v-188c49 16 68 60 68 97c0 32 -14 64 -63 89zM158 525c0 -33 10 -63 42 -80l12 -6l-1 162
c-39 -15 -53 -48 -53 -76z" />
    <glyph glyph-name="comma" unicode="," horiz-adv-x="205" 
d="M97 104h51c19 0 29 -13 24 -36l-38 -158c-4 -17 -10 -33 -33 -33h-4c-15 0 -27 12 -27 29v169c0 17 12 29 27 29z" />
    <glyph glyph-name="semicolon" unicode=";" horiz-adv-x="204" 
d="M95 382h50c15 0 27 -12 27 -29v-46c0 -17 -12 -29 -27 -29h-50c-15 0 -27 12 -27 29v46c0 17 12 29 27 29zM95 104h51c19 0 29 -13 24 -36l-38 -158c-4 -17 -10 -33 -33 -33h-4c-15 0 -27 12 -27 29v169c0 17 12 29 27 29z" />
    <glyph glyph-name="colon" unicode=":" horiz-adv-x="196" 
d="M87 104h50c15 0 27 -12 27 -29v-46c0 -17 -12 -29 -27 -29h-50c-15 0 -27 12 -27 29v46c0 17 12 29 27 29zM87 382h50c15 0 27 -12 27 -29v-46c0 -17 -12 -29 -27 -29h-50c-15 0 -27 12 -27 29v46c0 17 12 29 27 29z" />
    <glyph glyph-name="quoteright" unicode="&#x2019;" horiz-adv-x="164" 
d="M80 740h51c19 0 29 -13 24 -36l-38 -158c-4 -17 -10 -33 -33 -33h-4c-15 0 -27 12 -27 29v169c0 17 12 29 27 29z" />
    <glyph glyph-name="quoteleft" unicode="&#x2018;" horiz-adv-x="164" 
d="M116 575h-51c-19 0 -29 13 -24 36l38 158c4 17 10 33 33 33h4c15 0 27 -12 27 -29v-169c0 -17 -12 -29 -27 -29z" />
    <glyph glyph-name="plus" unicode="+" horiz-adv-x="334" 
d="M48 310h97v96c0 17 13 29 28 29h29c15 0 27 -12 27 -29v-96h95c17 0 29 -13 29 -28v-29c0 -15 -12 -27 -29 -27h-95v-96c0 -17 -12 -29 -27 -29h-29c-15 0 -28 12 -28 29v96h-97c-17 0 -29 12 -29 27v29c0 15 12 28 29 28z" />
    <glyph glyph-name="underscore" unicode="_" horiz-adv-x="546" 
d="M74 -26h437c17 0 29 -13 29 -28v-29c0 -15 -12 -27 -29 -27h-437c-17 0 -29 12 -29 27v29c0 15 12 28 29 28z" />
    <glyph glyph-name="equal" unicode="=" horiz-adv-x="505" 
d="M104 394h332c17 0 29 -13 29 -28v-29c0 -15 -12 -27 -29 -27h-332c-17 0 -29 12 -29 27v29c0 15 12 28 29 28zM104 225h332c17 0 29 -13 29 -28v-29c0 -15 -12 -27 -29 -27h-332c-17 0 -29 12 -29 27v29c0 15 12 28 29 28z" />
    <glyph glyph-name="question" unicode="?" horiz-adv-x="394" 
d="M180 104h50c15 0 27 -12 27 -29v-46c0 -17 -12 -29 -27 -29h-50c-15 0 -27 12 -27 29v46c0 17 12 29 27 29zM254 269v-82c0 -29 -31 -29 -31 -29h-39s-28 0 -28 29v82c0 37 6 78 30 107l67 80c21 26 29 48 29 81c0 59 -26 84 -84 84c-71 0 -80 -38 -80 -99
c0 -29 -31 -29 -31 -29h-39s-28 0 -28 29c0 117 71 185 175 185c134 0 184 -81 184 -170c0 -39 -4 -76 -33 -111l-77 -93c-15 -17 -15 -32 -15 -64z" />
    <glyph glyph-name="asterisk" unicode="*" horiz-adv-x="313" 
d="M159 617l-42 -63c-6 -10 -12 -5 -12 -5l-36 24s-7 5 -2 15l40 60l-71 25c-8 4 -7 11 -7 11l11 41s4 9 15 9l68 -21v75c2 10 10 10 10 10l46 1s8 0 10 -9v-74l68 21c12 4 14 -4 14 -4l16 -42s3 -7 -6 -13l-68 -25l40 -61c8 -10 0 -15 0 -15l-32 -24s-9 -5 -16 3z" />
    <glyph glyph-name="greater" unicode="&#x3e;" horiz-adv-x="346" 
d="M74 147l185 122l-185 122c-15 9 -19 21 -19 36v28c0 15 15 23 29 14l253 -162c10 -6 18 -12 18 -27v-23c0 -10 -5 -18 -13 -23l-258 -165c-14 -9 -29 -1 -29 14v28c0 15 4 27 19 36z" />
    <glyph glyph-name="bracketleft" unicode="[" horiz-adv-x="288" 
d="M203 780v-61s0 -18 -19 -18h-45v-816h45c19 0 19 -16 19 -16v-64s0 -17 -19 -17h-142v1010h142c19 0 19 -18 19 -18z" />
    <glyph glyph-name="bracketright" unicode="]" horiz-adv-x="272" 
d="M42 719v61s0 18 19 18h142v-1010h-142c-19 0 -19 17 -19 17v64s0 16 19 16h45v816h-45c-19 0 -19 18 -19 18z" />
    <glyph glyph-name="backslash" unicode="\" horiz-adv-x="310" 
d="M221 -6l-242 712c-6 20 2 29 25 29h28c21 0 31 -3 39 -29l241 -712c6 -20 -2 -29 -25 -29h-27c-21 0 -31 3 -39 29z" />
    <glyph glyph-name="exclam" unicode="!" horiz-adv-x="226" 
d="M102 104h50c15 0 27 -12 27 -29v-46c0 -17 -12 -29 -27 -29h-50c-15 0 -27 12 -27 29v46c0 17 12 29 27 29zM106 700h39s30 0 30 -29v-483c0 -29 -29 -29 -29 -29h-39s-29 0 -29 29v483c0 29 28 29 28 29z" />
    <glyph glyph-name="space" unicode=" " horiz-adv-x="210" 
 />
    </font>
</defs>
</svg>
